<svg width="188" height="126" viewBox="0 0 188 126" fill="none" xmlns="http://www.w3.org/2000/svg">
<g filter="url(#filter0_ddi_341_144)">
<g clip-path="url(#clip0_341_144)">
<rect width="145" height="83" rx="18" transform="matrix(-1 0 0 1 165 20)" fill="url(#paint0_linear_341_144)"/>
<g filter="url(#filter1_di_341_144)">
<path d="M155.553 45.3115C155.553 37.0273 148.837 30.3115 140.553 30.3115H118.938V92.6883H140.553C148.837 92.6883 155.553 85.9725 155.553 77.6883V45.3115Z" fill="url(#paint1_linear_341_144)"/>
</g>
<g filter="url(#filter2_d_341_144)">
<path d="M133.651 45.1756C133.651 36.6321 126.526 29.814 117.99 30.1901L43.7865 33.4603C35.7668 33.8137 29.4469 40.4183 29.4469 48.4457V75.4954C29.4469 83.5836 35.8596 90.2154 43.9434 90.4869L118.147 92.9793C126.624 93.264 133.651 86.4694 133.651 77.9877V45.1756Z" fill="url(#paint2_linear_341_144)"/>
<path d="M133.651 45.1756C133.651 36.6321 126.526 29.814 117.99 30.1901L43.7865 33.4603C35.7668 33.8137 29.4469 40.4183 29.4469 48.4457V75.4954C29.4469 83.5836 35.8596 90.2154 43.9434 90.4869L118.147 92.9793C126.624 93.264 133.651 86.4694 133.651 77.9877V45.1756Z" fill="url(#paint3_linear_341_144)" fill-opacity="0.2"/>
<path d="M133.151 45.1756C133.151 36.9169 126.263 30.3261 118.012 30.6897L43.8085 33.9598C36.0562 34.3014 29.9469 40.6858 29.9469 48.4457V75.4954C29.9469 83.314 36.1459 89.7247 43.9601 89.9872L118.164 92.4795C126.358 92.7548 133.151 86.1866 133.151 77.9877V45.1756Z" stroke="url(#paint4_linear_341_144)"/>
</g>
<g filter="url(#filter3_d_341_144)">
<circle cx="114.056" cy="61.5004" r="4.88224" fill="#AC2828"/>
</g>
<path d="M50.4319 65.6465C52.9045 65.6465 54.4397 63.9648 54.4397 61.2754V61.2637C54.4397 58.5801 52.8987 56.8984 50.4319 56.8984C47.9709 56.8984 46.4182 58.5801 46.4182 61.2637V61.2754C46.4182 63.9648 47.9592 65.6465 50.4319 65.6465ZM50.4319 64.334C48.9202 64.334 47.9592 63.1562 47.9592 61.2754V61.2637C47.9592 59.3828 48.926 58.2109 50.4319 58.2109C51.9436 58.2109 52.9045 59.3887 52.9045 61.2637V61.2754C52.9045 63.1387 51.9612 64.334 50.4319 64.334ZM55.6467 65.5H57.1584V62.0488H60.7034V60.8184H57.1584V58.3164H61.0374V57.0449H55.6467V65.5ZM62.1389 65.5H63.6506V62.0488H67.1956V60.8184H63.6506V58.3164H67.5295V57.0449H62.1389V65.5Z" fill="url(#paint5_linear_341_144)"/>
</g>
<rect x="-0.5" y="0.5" width="144" height="82" rx="17.5" transform="matrix(-1 0 0 1 164 20)" stroke="url(#paint6_linear_341_144)"/>
</g>
<defs>
<filter id="filter0_ddi_341_144" x="0" y="0" width="188" height="126" filterUnits="userSpaceOnUse" color-interpolation-filters="sRGB">
<feFlood flood-opacity="0" result="BackgroundImageFix"/>
<feColorMatrix in="SourceAlpha" type="matrix" values="0 0 0 0 0 0 0 0 0 0 0 0 0 0 0 0 0 0 127 0" result="hardAlpha"/>
<feOffset dx="7" dy="7"/>
<feGaussianBlur stdDeviation="8"/>
<feComposite in2="hardAlpha" operator="out"/>
<feColorMatrix type="matrix" values="0 0 0 0 0 0 0 0 0 0 0 0 0 0 0 0 0 0 0.25 0"/>
<feBlend mode="normal" in2="BackgroundImageFix" result="effect1_dropShadow_341_144"/>
<feColorMatrix in="SourceAlpha" type="matrix" values="0 0 0 0 0 0 0 0 0 0 0 0 0 0 0 0 0 0 127 0" result="hardAlpha"/>
<feOffset dx="-4" dy="-4"/>
<feGaussianBlur stdDeviation="8"/>
<feComposite in2="hardAlpha" operator="out"/>
<feColorMatrix type="matrix" values="0 0 0 0 0.14902 0 0 0 0 0.192157 0 0 0 0 0.247059 0 0 0 1 0"/>
<feBlend mode="normal" in2="effect1_dropShadow_341_144" result="effect2_dropShadow_341_144"/>
<feBlend mode="normal" in="SourceGraphic" in2="effect2_dropShadow_341_144" result="shape"/>
<feColorMatrix in="SourceAlpha" type="matrix" values="0 0 0 0 0 0 0 0 0 0 0 0 0 0 0 0 0 0 127 0" result="hardAlpha"/>
<feOffset dx="4" dy="4"/>
<feGaussianBlur stdDeviation="2"/>
<feComposite in2="hardAlpha" operator="arithmetic" k2="-1" k3="1"/>
<feColorMatrix type="matrix" values="0 0 0 0 0.0980392 0 0 0 0 0.12549 0 0 0 0 0.156863 0 0 0 1 0"/>
<feBlend mode="normal" in2="shape" result="effect3_innerShadow_341_144"/>
</filter>
<filter id="filter1_di_341_144" x="110.938" y="24.3115" width="46.6151" height="70.377" filterUnits="userSpaceOnUse" color-interpolation-filters="sRGB">
<feFlood flood-opacity="0" result="BackgroundImageFix"/>
<feColorMatrix in="SourceAlpha" type="matrix" values="0 0 0 0 0 0 0 0 0 0 0 0 0 0 0 0 0 0 127 0" result="hardAlpha"/>
<feOffset dx="-4" dy="-2"/>
<feGaussianBlur stdDeviation="2"/>
<feComposite in2="hardAlpha" operator="out"/>
<feColorMatrix type="matrix" values="0 0 0 0 0 0 0 0 0 0 0 0 0 0 0 0 0 0 0.25 0"/>
<feBlend mode="normal" in2="BackgroundImageFix" result="effect1_dropShadow_341_144"/>
<feBlend mode="normal" in="SourceGraphic" in2="effect1_dropShadow_341_144" result="shape"/>
<feColorMatrix in="SourceAlpha" type="matrix" values="0 0 0 0 0 0 0 0 0 0 0 0 0 0 0 0 0 0 127 0" result="hardAlpha"/>
<feOffset dx="2"/>
<feGaussianBlur stdDeviation="1"/>
<feComposite in2="hardAlpha" operator="arithmetic" k2="-1" k3="1"/>
<feColorMatrix type="matrix" values="0 0 0 0 0 0 0 0 0 0 0 0 0 0 0 0 0 0 0.2 0"/>
<feBlend mode="normal" in2="shape" result="effect2_innerShadow_341_144"/>
</filter>
<filter id="filter2_d_341_144" x="24.4469" y="25.1758" width="120.204" height="78.8125" filterUnits="userSpaceOnUse" color-interpolation-filters="sRGB">
<feFlood flood-opacity="0" result="BackgroundImageFix"/>
<feColorMatrix in="SourceAlpha" type="matrix" values="0 0 0 0 0 0 0 0 0 0 0 0 0 0 0 0 0 0 127 0" result="hardAlpha"/>
<feOffset dx="3" dy="3"/>
<feGaussianBlur stdDeviation="4"/>
<feComposite in2="hardAlpha" operator="out"/>
<feColorMatrix type="matrix" values="0 0 0 0 0 0 0 0 0 0 0 0 0 0 0 0 0 0 0.35 0"/>
<feBlend mode="normal" in2="BackgroundImageFix" result="effect1_dropShadow_341_144"/>
<feBlend mode="normal" in="SourceGraphic" in2="effect1_dropShadow_341_144" result="shape"/>
</filter>
<filter id="filter3_d_341_144" x="99.1735" y="46.6182" width="29.7645" height="29.7646" filterUnits="userSpaceOnUse" color-interpolation-filters="sRGB">
<feFlood flood-opacity="0" result="BackgroundImageFix"/>
<feColorMatrix in="SourceAlpha" type="matrix" values="0 0 0 0 0 0 0 0 0 0 0 0 0 0 0 0 0 0 127 0" result="hardAlpha"/>
<feOffset/>
<feGaussianBlur stdDeviation="5"/>
<feComposite in2="hardAlpha" operator="out"/>
<feColorMatrix type="matrix" values="0 0 0 0 0.952941 0 0 0 0 0.172549 0 0 0 0 0.219608 0 0 0 1 0"/>
<feBlend mode="normal" in2="BackgroundImageFix" result="effect1_dropShadow_341_144"/>
<feBlend mode="normal" in="SourceGraphic" in2="effect1_dropShadow_341_144" result="shape"/>
</filter>
<linearGradient id="paint0_linear_341_144" x1="145" y1="83" x2="-8.21186" y2="19.9571" gradientUnits="userSpaceOnUse">
<stop stop-color="#005D77"/>
<stop offset="1" stop-color="#192028"/>
</linearGradient>
<linearGradient id="paint1_linear_341_144" x1="137.246" y1="30.3115" x2="137.246" y2="92.6883" gradientUnits="userSpaceOnUse">
<stop stop-color="#001829"/>
<stop offset="0.0953539" stop-color="#495D75"/>
<stop offset="0.176803" stop-color="#495D75"/>
<stop offset="1" stop-color="#001829"/>
</linearGradient>
<linearGradient id="paint2_linear_341_144" x1="28.6509" y1="92.2357" x2="140.442" y2="47.4522" gradientUnits="userSpaceOnUse">
<stop offset="0.366957" stop-color="#095368"/>
<stop offset="0.722363" stop-color="#011B2D"/>
</linearGradient>
<linearGradient id="paint3_linear_341_144" x1="133.651" y1="92.2357" x2="34.8754" y2="21.775" gradientUnits="userSpaceOnUse">
<stop stop-color="#26313F"/>
<stop offset="0.53062" stop-color="#192028"/>
</linearGradient>
<linearGradient id="paint4_linear_341_144" x1="25.3686" y1="76.078" x2="159.455" y2="63.406" gradientUnits="userSpaceOnUse">
<stop stop-color="#192028"/>
<stop offset="0.764212" stop-color="#313F4F"/>
<stop offset="0.91473" stop-color="#495D75"/>
</linearGradient>
<linearGradient id="paint5_linear_341_144" x1="47.8965" y1="61.5" x2="73.6667" y2="63.3723" gradientUnits="userSpaceOnUse">
<stop stop-color="#ED2C2C"/>
<stop offset="1" stop-color="#1E1E1E"/>
</linearGradient>
<linearGradient id="paint6_linear_341_144" x1="0" y1="0" x2="145" y2="83" gradientUnits="userSpaceOnUse">
<stop stop-color="#192028"/>
<stop offset="1" stop-color="#495D75"/>
</linearGradient>
<clipPath id="clip0_341_144">
<rect width="145" height="83" rx="18" transform="matrix(-1 0 0 1 165 20)" fill="white"/>
</clipPath>
</defs>
</svg>
